{"title":"Sykt lykkelig aka Happy, Happy (2010) BRRip x264 aac Nor + Ukr s","uid":9144813,"size":807400839,"categoryP":"video","categoryS":"movies","magnet":"?xt=urn:btih:11e5b9b99eeba3cab7128f3be5ac7bdd6d4c76b0&amp;dn=Sykt+lykkelig+aka+Happy%2C+Happy+%282010%29+BRRip+x264+aac+Nor+%2B+Ukr+s&amp;tr=udp%3A%2F%2Ftracker.openbittorrent.com%3A80&amp;tr=udp%3A%2F%2Fopen.demonii.com%3A1337&amp;tr=udp%3A%2F%2Ftracker.coppersurfer.tk%3A6969&amp;tr=udp%3A%2F%2Fexodus.desync.com%3A6969","seeders":2,"leechers":0,"uploader":"orysia","files":-1,"time":1383574722,"description":" &lt;a href=&quot;http://www.imdb.com/title/tt1664892/?ref_=rvi_tt&quot; rel=&quot;nofollow&quot; target=&quot;_NEW&quot;&gt;http://www.imdb.com/title/tt1664892/?ref_=rvi_tt&lt;/a&gt;\n\nGenre: Comedy, Drama\n\nDirector: Anne Sewitsky\nStars: Agnes Kittelsen, Henrik Rafaelsen, Joachim Rafaelsen\n\nFamily is the most important thing in the world to Kaja. She is an eternal optimist in spite of living with a man who would rather go hunting with the boys, and who refuses to have sex with her because she isn't particularly attractive anymore. Whatever. That's life. But when the perfect couple moves in next door, Kaja struggles to keep her emotions in check. Not only do these successful, beautiful, exciting people sing in a choir; they have also adopted a child - from Ethiopia. These new neighbors open a new world to Kaja, with consequences for everyone involved. And when Christmas comes around, it becomes evident that nothing will ever be like before - even if Kaja tries her very best.\n\nSykt lykkelig.2010.mp4\nFormat                                   : MPEG-4\nFormat profile                           : Base Media\nCodec ID                                 : isom\nFile size                                : 770 MiB\nDuration                                 : 1h 28mn\nOverall bit rate                         : 1 223 Kbps\nMovie name                               : Sykt lykkelig*2010 /antusyrzhuk\nGenre                                    : Comedy\nRecorded date                            : 2010\nWriting application                      : Lavf54.63.104\nComment                                  : http://cinemasterpiece(dot)wordpress(dot)com/\nXtra                                     : WM/Period\n\nVideo\nID                                       : 1\nFormat                                   : AVC\nFormat/Info                              : Advanced Video Codec\nFormat profile                           : &lt;a class=&quot;__cf_email__&quot; href=&quot;/cdn-cgi/l/email-protection&quot; data-cfemail=&quot;430b2a242b030f706d71&quot;&gt;[email&amp;#160;protected]&lt;/a&gt;&lt;script cf-hash='f9e31' type=&quot;text/javascript&quot;&gt;\n/* &lt;![CDATA[ */!function(){try{var t=&quot;currentScript&quot;in document?document.currentScript:function(){for(var t=document.getElementsByTagName(&quot;script&quot;),e=t.length;e--;)if(t[e].getAttribute(&quot;cf-hash&quot;))return t[e]}();if(t&amp;&amp;t.previousSibling){var e,r,n,i,c=t.previousSibling,a=c.getAttribute(&quot;data-cfemail&quot;);if(a){for(e=&quot;&quot;,r=parseInt(a.substr(0,2),16),n=2;a.length-n;n+=2)i=parseInt(a.substr(n,2),16)^r,e+=String.fromCharCode(i);e=document.createTextNode(e),c.parentNode.replaceChild(e,c)}}}catch(u){}}();/* ]]&gt; */&lt;/script&gt;\nFormat settings, CABAC                   : Yes\nFormat settings, ReFrames                : 5 frames\nCodec ID                                 : avc1\nCodec ID/Info                            : Advanced Video Coding\nDuration                                 : 1h 28mn\nBit rate                                 : 1 103 Kbps\nWidth                                    : 800 pixels\nHeight                                   : 480 pixels\nDisplay aspect ratio                     : 1.667\nFrame rate mode                          : Constant\nFrame rate                               : 24.000 fps\nColor space                              : YUV\nChroma subsampling                       : 4:2:0\nBit depth                                : 8 bits\nScan type                                : Progressive\nBits/(Pixel*Frame)                       : 0.120\nStream size                              : 694 MiB (90%)\nWriting library                          : x264 core 123 r2189 35cf912\nEncoding settings                        : cabac=1 // deblock=1:0:0 / analyse=0x3:0x133 / me=umh / subme=8 / psy=1 / psy_rd=1.00:0.00 // me_range=16 / chroma_me=1 / trellis=1 / 8x8dct=1 / cqm=0 / deadzone=21,11 / fast_pskip=1 / chroma_qp_offset=-2 / threads=3 / sliced_threads=0 / nr=0 / decimate=1 / interlaced=0 / bluray_compat=0 / constrained_intra=0 / bframes=3 / b_pyramid=2 / b_adapt=1 / b_bias=0 / direct=1 / weightb=1 / open_gop=0 / weightp=2 / keyint=250 / keyint_min=25 / scenecut=40 / intra_refresh=0 / rc_lookahead=50 / rc=2pass / mbtree=1 / bitrate=1103 / ratetol=1.0 / qcomp=0.60 / qpmin=10 / qpmax=51 / qpstep=4 / cplxblur=20.0 / qblur=0.5 / ip_ratio=1.40 / aq=1:1.00\n\nAudio\nID                                       : 2\nFormat                                   : AAC\nFormat/Info                              : Advanced Audio Codec\nFormat profile                           : LC\nCodec ID                                 : 40\nDuration                                 : 1h 28mn\nBit rate mode                            : Constant\nBit rate                                 : 114 Kbps\nChannel count                            : 2 channels\nChannel positions                        : Front: L R\nSampling rate                            : 48.0 KHz\nCompression mode                         : Lossy\nStream size                              : 71.5 MiB (9%)\nLanguage                                 : Norwegian\n\nUkrainian subtitles are HARDCODED\n\nScreenshots: &lt;a href=&quot;\nhttp://img823.imageshack.us/img823/3949/m1jl.png&quot; rel=&quot;nofollow&quot; target=&quot;_NEW&quot;&gt;\nhttp://img823.imageshack.us/img823/3949/m1jl.png&lt;/a&gt; &lt;a href=&quot;\nhttp://img708.imageshack.us/img708/5281/5cn0.png&quot; rel=&quot;nofollow&quot; target=&quot;_NEW&quot;&gt;\nhttp://img708.imageshack.us/img708/5281/5cn0.png&lt;/a&gt; &lt;a href=&quot;\nhttp://img29.imageshack.us/img29/2424/zjb0.png&quot; rel=&quot;nofollow&quot; target=&quot;_NEW&quot;&gt;\nhttp://img29.imageshack.us/img29/2424/zjb0.png&lt;/a&gt; &lt;a href=&quot;\nhttp://img18.imageshack.us/img18/2781/d18g.png&quot; rel=&quot;nofollow&quot; target=&quot;_NEW&quot;&gt;\nhttp://img18.imageshack.us/img18/2781/d18g.png&lt;/a&gt; &lt;a href=&quot;\nhttp://img9.imageshack.us/img9/42/ja3i.png&quot; rel=&quot;nofollow&quot; target=&quot;_NEW&quot;&gt;\nhttp://img9.imageshack.us/img9/42/ja3i.png&lt;/a&gt; &lt;a href=&quot;\nhttp://img823.imageshack.us/img823/1453/wzw3.png&quot; rel=&quot;nofollow&quot; target=&quot;_NEW&quot;&gt;\nhttp://img823.imageshack.us/img823/1453/wzw3.png&lt;/a&gt; &lt;a href=&quot;\nhttp://img34.imageshack.us/img34/7030/bwor.png&quot; rel=&quot;nofollow&quot; target=&quot;_NEW&quot;&gt;\nhttp://img34.imageshack.us/img34/7030/bwor.png&lt;/a&gt;\n","torrent":{"xt":"urn:btih:11e5b9b99eeba3cab7128f3be5ac7bdd6d4c76b0","amp;dn":"Sykt+lykkelig+aka+Happy%2C+Happy+%282010%29+BRRip+x264+aac+Nor+%2B+Ukr+s","amp;tr":["udp%3A%2F%2Ftracker.openbittorrent.com%3A80","udp%3A%2F%2Fopen.demonii.com%3A1337","udp%3A%2F%2Ftracker.coppersurfer.tk%3A6969","udp%3A%2F%2Fexodus.desync.com%3A6969"],"infoHash":"11e5b9b99eeba3cab7128f3be5ac7bdd6d4c76b0","infoHashBuffer":{"type":"Buffer","data":[17,229,185,185,158,235,163,202,183,18,143,59,229,172,123,221,109,76,118,176]},"announce":[],"urlList":[]}}